<svg id="Logo_Karlsruhe-rechts" xmlns="http://www.w3.org/2000/svg" xmlns:xlink="http://www.w3.org/1999/xlink" width="220.923" height="49.136" viewBox="0 0 220.923 49.136">
  <defs>
    <clipPath id="clip-path">
      <rect id="Rectangle_822" data-name="Rectangle 822" width="220.923" height="49.136" fill="none"/>
    </clipPath>
  </defs>
  <path id="Path_940" data-name="Path 940" d="M28.4,0,0,48.645H20.943L39.661,19.469Z" fill="#c6c7c8"/>
  <path id="Path_941" data-name="Path 941" d="M8.8,21.525H40.026l-4.16-7.135Z" transform="translate(16.62 27.177)" fill="#e2001a"/>
  <path id="Path_942" data-name="Path 942" d="M8.54,26.735l26.373-8.521-4.16-7.164Z" transform="translate(16.129 20.869)" fill="#fc0"/>
  <path id="Path_943" data-name="Path 943" d="M8.23,31.9,29.981,14.914,25.822,7.75Z" transform="translate(15.543 14.637)" fill="#e2001a"/>
  <path id="Path_944" data-name="Path 944" d="M37.358,7.86,27.97,19.01V7.86h-5.2V33.829h5.2V21.783h.087l9.33,12.046H44.2L33.082,20.108,43.77,7.86Z" transform="translate(43.004 14.845)" fill="#1a171b"/>
  <g id="Group_985" data-name="Group 985" clip-path="url(#clip-path)">
    <path id="Path_945" data-name="Path 945" d="M46,29.782c0-2.889,3.322-3.322,5.546-3.322h2.166a6.471,6.471,0,0,1-1.04,3.957,4.246,4.246,0,0,1-3.5,1.7c-1.791,0-3.178-.722-3.178-2.34m-2.369-8.348a10.139,10.139,0,0,1,5.777-2.08c2.889,0,4.333,1.04,4.333,4.131H50.853a15.137,15.137,0,0,0-6.413,1.127,5.6,5.6,0,0,0-3.293,5.46,6.124,6.124,0,0,0,6.7,5.777,6.846,6.846,0,0,0,5.777-3.293h0a23.829,23.829,0,0,0,.2,2.889h4.391c0-1.5-.173-2.889-.231-4.275s0-2.889,0-4.8V23.918c0-5.777-2.426-8.088-8.261-8.088a17.332,17.332,0,0,0-6.673,1.444Z" transform="translate(44.934 13.345)" fill="#1a171b"/>
    <path id="Path_946" data-name="Path 946" d="M48.69,35.407h5V28.359c0-2.744,0-7.8,4.044-7.8a5,5,0,0,1,2.224.4V15.938a5.6,5.6,0,0,0-1.531-.144,5.777,5.777,0,0,0-5.228,4.8h0V16.4H48.69Z" transform="translate(59.201 13.266)" fill="#1a171b"/>
  </g>
  <rect id="Rectangle_823" data-name="Rectangle 823" width="4.968" height="27.904" transform="translate(122.045 20.769)" fill="#1a171b"/>
  <g id="Group_986" data-name="Group 986" clip-path="url(#clip-path)">
    <path id="Path_947" data-name="Path 947" d="M69.461,16.472a22.271,22.271,0,0,0-5.431-.722c-3.9,0-7.51,1.82-7.51,5.951,0,6.933,8.666,4.362,8.666,8.117,0,1.849-2.022,2.34-3.264,2.34a10.89,10.89,0,0,1-4.911-1.271l-.318,4.1a21.983,21.983,0,0,0,5.777.809c4.044,0,8.03-1.791,8.03-6.239,0-6.933-8.666-5-8.666-8.03,0-1.647,1.618-2.138,2.889-2.138a12.075,12.075,0,0,1,4.449.838Z" transform="translate(73.989 13.194)" fill="#1a171b"/>
    <path id="Path_948" data-name="Path 948" d="M62.45,35.407h5V28.358c0-2.744,0-7.8,4.044-7.8a5.228,5.228,0,0,1,2.253.4V15.937a5.588,5.588,0,0,0-6.817,4.651h0V16.4H62.45Z" transform="translate(85.188 13.267)" fill="#1a171b"/>
    <path id="Path_949" data-name="Path 949" d="M84.464,16h-4.94v9.359c0,2.455-.751,6.355-4.362,6.355s-3.235-3.149-3.235-5.488V16h-5V28.074c0,4.333,1.964,7.51,6.5,7.51a8.059,8.059,0,0,0,6.3-3.033h0v2.6h4.737Z" transform="translate(93.649 13.666)" fill="#1a171b"/>
    <path id="Path_950" data-name="Path 950" d="M74.43,40.824h5V31.436c0-2.455.78-6.355,4.391-6.355,3.177,0,3.235,3.149,3.235,5.517V40.824h4.968v-12.1c0-4.3-1.964-7.51-6.5-7.51a7.048,7.048,0,0,0-6.008,3.062h0V12.92H74.43Z" transform="translate(107.814 7.849)" fill="#1a171b"/>
    <path id="Path_951" data-name="Path 951" d="M98.228,30.243a13.057,13.057,0,0,1-6.384,1.935,5,5,0,0,1-5.46-4.824h13.23c0-6.7-1.993-11.555-9.1-11.555-5.951,0-8.9,4.593-8.9,10.11a9.1,9.1,0,0,0,10.024,9.937,13.23,13.23,0,0,0,6.586-1.531ZM86.385,23.917a4.362,4.362,0,0,1,4.42-4.506c2.889,0,3.9,2.08,4.073,4.506Z" transform="translate(121.308 13.289)" fill="#1a171b"/>
  </g>
</svg>
